<mxfile host="drawio-plugin" modified="2021-09-09T09:49:23.108Z" agent="5.0 (Windows NT 6.2; Win64; x64) AppleWebKit/537.36 (KHTML, like Gecko) Chrome/89.0.4389.114 Safari/537.36" etag="TRE6w89QIObQxCKeS_sn" version="14.7.4" type="embed"><diagram id="23iRSUPoRavnBvh4doch" name="Page-1"><mxGraphModel dx="1215" dy="719" grid="1" gridSize="10" guides="1" tooltips="1" connect="1" arrows="1" fold="1" page="1" pageScale="1" pageWidth="827" pageHeight="1169" math="0" shadow="0"><root><mxCell id="0"/><mxCell id="1" parent="0"/><mxCell id="2" value="ListEvent" style="swimlane;fontStyle=1;align=center;verticalAlign=top;childLayout=stackLayout;horizontal=1;startSize=26;horizontalStack=0;resizeParent=1;resizeParentMax=0;resizeLast=0;collapsible=1;marginBottom=0;" parent="1" vertex="1"><mxGeometry x="89" y="430" width="160" height="110" as="geometry"/></mxCell><mxCell id="3" value="+ events: object" style="text;strokeColor=none;align=left;verticalAlign=top;spacingLeft=4;spacingRight=4;overflow=hidden;rotatable=0;points=[[0,0.5],[1,0.5]];portConstraint=eastwest;fillColor=#2a2a2a;" parent="2" vertex="1"><mxGeometry y="26" width="160" height="26" as="geometry"/></mxCell><mxCell id="4" value="" style="line;strokeWidth=1;fillColor=none;align=left;verticalAlign=middle;spacingTop=-1;spacingLeft=3;spacingRight=3;rotatable=0;labelPosition=right;points=[];portConstraint=eastwest;" parent="2" vertex="1"><mxGeometry y="52" width="160" height="8" as="geometry"/></mxCell><mxCell id="5" value="+ on(event, listener): object&#10;+ emit(event, arg): void" style="text;strokeColor=none;align=left;verticalAlign=top;spacingLeft=4;spacingRight=4;overflow=hidden;rotatable=0;points=[[0,0.5],[1,0.5]];portConstraint=eastwest;fillColor=#2a2a2a;" parent="2" vertex="1"><mxGeometry y="60" width="160" height="50" as="geometry"/></mxCell><mxCell id="6" value="Model" style="swimlane;fontStyle=1;align=center;verticalAlign=top;childLayout=stackLayout;horizontal=1;startSize=26;horizontalStack=0;resizeParent=1;resizeParentMax=0;resizeLast=0;collapsible=1;marginBottom=0;" parent="1" vertex="1"><mxGeometry x="84" y="170" width="170" height="146" as="geometry"/></mxCell><mxCell id="7" value="+ items: any&#10;+ selectedIndex: number" style="text;strokeColor=none;align=left;verticalAlign=top;spacingLeft=4;spacingRight=4;overflow=hidden;rotatable=0;points=[[0,0.5],[1,0.5]];portConstraint=eastwest;fillColor=#2a2a2a;" parent="6" vertex="1"><mxGeometry y="26" width="170" height="34" as="geometry"/></mxCell><mxCell id="8" value="" style="line;strokeWidth=1;fillColor=none;align=left;verticalAlign=middle;spacingTop=-1;spacingLeft=3;spacingRight=3;rotatable=0;labelPosition=right;points=[];portConstraint=eastwest;" parent="6" vertex="1"><mxGeometry y="60" width="170" height="8" as="geometry"/></mxCell><mxCell id="9" value="+ getItems(): string&#10;+ addItem(item): void&#10;+ removeItem(index): void&#10;+ getSelectedIndex(): number&#10;+ setSelectedIndex(): void" style="text;strokeColor=none;align=left;verticalAlign=top;spacingLeft=4;spacingRight=4;overflow=hidden;rotatable=0;points=[[0,0.5],[1,0.5]];portConstraint=eastwest;fillColor=#2a2a2a;" parent="6" vertex="1"><mxGeometry y="68" width="170" height="78" as="geometry"/></mxCell><mxCell id="10" value="View" style="swimlane;fontStyle=1;align=center;verticalAlign=top;childLayout=stackLayout;horizontal=1;startSize=26;horizontalStack=0;resizeParent=1;resizeParentMax=0;resizeLast=0;collapsible=1;marginBottom=0;" parent="1" vertex="1"><mxGeometry x="320" y="440" width="160" height="110" as="geometry"/></mxCell><mxCell id="11" value="+ model: Model&#10;+ elements: any" style="text;strokeColor=none;align=left;verticalAlign=top;spacingLeft=4;spacingRight=4;overflow=hidden;rotatable=0;points=[[0,0.5],[1,0.5]];portConstraint=eastwest;fillColor=#2a2a2a;" parent="10" vertex="1"><mxGeometry y="26" width="160" height="34" as="geometry"/></mxCell><mxCell id="12" value="" style="line;strokeWidth=1;fillColor=none;align=left;verticalAlign=middle;spacingTop=-1;spacingLeft=3;spacingRight=3;rotatable=0;labelPosition=right;points=[];portConstraint=eastwest;" parent="10" vertex="1"><mxGeometry y="60" width="160" height="8" as="geometry"/></mxCell><mxCell id="13" value="+ show(): void&#10;+ rebuildList(): void" style="text;strokeColor=none;align=left;verticalAlign=top;spacingLeft=4;spacingRight=4;overflow=hidden;rotatable=0;points=[[0,0.5],[1,0.5]];portConstraint=eastwest;fillColor=#2a2a2a;" parent="10" vertex="1"><mxGeometry y="68" width="160" height="42" as="geometry"/></mxCell><mxCell id="14" value="Controller" style="swimlane;fontStyle=1;align=center;verticalAlign=top;childLayout=stackLayout;horizontal=1;startSize=26;horizontalStack=0;resizeParent=1;resizeParentMax=0;resizeLast=0;collapsible=1;marginBottom=0;" parent="1" vertex="1"><mxGeometry x="352" y="240" width="176" height="116" as="geometry"/></mxCell><mxCell id="15" value="+ model: Model&#10;+ view: View" style="text;strokeColor=none;align=left;verticalAlign=top;spacingLeft=4;spacingRight=4;overflow=hidden;rotatable=0;points=[[0,0.5],[1,0.5]];portConstraint=eastwest;fillColor=#2a2a2a;" parent="14" vertex="1"><mxGeometry y="26" width="176" height="32" as="geometry"/></mxCell><mxCell id="16" value="" style="line;strokeWidth=1;fillColor=none;align=left;verticalAlign=middle;spacingTop=-1;spacingLeft=3;spacingRight=3;rotatable=0;labelPosition=right;points=[];portConstraint=eastwest;" parent="14" vertex="1"><mxGeometry y="58" width="176" height="8" as="geometry"/></mxCell><mxCell id="17" value="+ addItem(): void&#10;+ delItem(): void&#10;+ updateSelected(index): void" style="text;strokeColor=none;align=left;verticalAlign=top;spacingLeft=4;spacingRight=4;overflow=hidden;rotatable=0;points=[[0,0.5],[1,0.5]];portConstraint=eastwest;fillColor=#2a2a2a;" parent="14" vertex="1"><mxGeometry y="66" width="176" height="50" as="geometry"/></mxCell><mxCell id="18" value="1" style="endArrow=open;html=1;endSize=12;startArrow=diamondThin;startSize=14;startFill=0;edgeStyle=orthogonalEdgeStyle;align=left;verticalAlign=bottom;entryX=1;entryY=0.5;entryDx=0;entryDy=0;exitX=0;exitY=0.5;exitDx=0;exitDy=0;noLabel=1;fontColor=none;" parent="1" source="17" target="9" edge="1"><mxGeometry x="-1" y="3" relative="1" as="geometry"><mxPoint x="230" y="370" as="sourcePoint"/><mxPoint x="390" y="370" as="targetPoint"/></mxGeometry></mxCell><mxCell id="19" value="1" style="endArrow=open;html=1;endSize=12;startArrow=diamondThin;startSize=14;startFill=0;edgeStyle=orthogonalEdgeStyle;align=left;verticalAlign=bottom;noLabel=1;fontColor=none;entryX=0.5;entryY=0;entryDx=0;entryDy=0;exitX=0.5;exitY=1;exitDx=0;exitDy=0;" parent="1" source="14" target="10" edge="1"><mxGeometry x="-1" y="3" relative="1" as="geometry"><mxPoint x="240" y="400" as="sourcePoint"/><mxPoint x="390" y="370" as="targetPoint"/></mxGeometry></mxCell><mxCell id="20" value="1" style="endArrow=open;html=1;endSize=12;startArrow=diamondThin;startSize=14;startFill=0;edgeStyle=orthogonalEdgeStyle;align=left;verticalAlign=bottom;exitX=0.25;exitY=0;exitDx=0;exitDy=0;entryX=0.75;entryY=1;entryDx=0;entryDy=0;noLabel=1;fontColor=none;" parent="1" source="10" target="6" edge="1"><mxGeometry x="-1" y="3" relative="1" as="geometry"><mxPoint x="230" y="370" as="sourcePoint"/><mxPoint x="390" y="370" as="targetPoint"/><Array as="points"><mxPoint x="360" y="378"/><mxPoint x="212" y="378"/></Array></mxGeometry></mxCell><mxCell id="21" value="" style="endArrow=open;endFill=1;endSize=12;html=1;fontColor=none;exitX=0.5;exitY=0;exitDx=0;exitDy=0;entryX=0.5;entryY=1;entryDx=0;entryDy=0;" parent="1" source="2" target="6" edge="1"><mxGeometry width="160" relative="1" as="geometry"><mxPoint x="230" y="370" as="sourcePoint"/><mxPoint x="390" y="370" as="targetPoint"/></mxGeometry></mxCell><mxCell id="22" value="" style="endArrow=open;endFill=1;endSize=12;html=1;fontColor=none;entryX=-0.013;entryY=0.706;entryDx=0;entryDy=0;entryPerimeter=0;" parent="1" target="11" edge="1"><mxGeometry width="160" relative="1" as="geometry"><mxPoint x="250" y="490" as="sourcePoint"/><mxPoint x="310" y="483" as="targetPoint"/></mxGeometry></mxCell></root></mxGraphModel></diagram></mxfile>